<svg width="15" height="15" viewBox="0 0 15 15" fill="none" xmlns="http://www.w3.org/2000/svg">
<path d="M8 11C8.09889 11 8.19556 10.9707 8.27779 10.9157C8.36001 10.8608 8.4241 10.7827 8.46194 10.6913C8.49978 10.6 8.50969 10.4994 8.49039 10.4025C8.4711 10.3055 8.42348 10.2164 8.35355 10.1464C8.28363 10.0765 8.19454 10.0289 8.09755 10.0096C8.00055 9.99031 7.90002 10.0002 7.80866 10.0381C7.7173 10.0759 7.63921 10.14 7.58427 10.2222C7.52932 10.3044 7.5 10.4011 7.5 10.5C7.5 10.6326 7.55268 10.7598 7.64645 10.8536C7.74021 10.9473 7.86739 11 8 11ZM10.5 11C10.5989 11 10.6956 10.9707 10.7778 10.9157C10.86 10.8608 10.9241 10.7827 10.9619 10.6913C10.9998 10.6 11.0097 10.4994 10.9904 10.4025C10.9711 10.3055 10.9235 10.2164 10.8536 10.1464C10.7836 10.0765 10.6945 10.0289 10.5975 10.0096C10.5006 9.99031 10.4 10.0002 10.3087 10.0381C10.2173 10.0759 10.1392 10.14 10.0843 10.2222C10.0293 10.3044 10 10.4011 10 10.5C10 10.6326 10.0527 10.7598 10.1464 10.8536C10.2402 10.9473 10.3674 11 10.5 11ZM10.5 9C10.5989 9 10.6956 8.97067 10.7778 8.91573C10.86 8.86079 10.9241 8.7827 10.9619 8.69134C10.9998 8.59998 11.0097 8.49944 10.9904 8.40245C10.9711 8.30546 10.9235 8.21637 10.8536 8.14645C10.7836 8.07652 10.6945 8.0289 10.5975 8.00961C10.5006 7.99031 10.4 8.00022 10.3087 8.03806C10.2173 8.0759 10.1392 8.13999 10.0843 8.22221C10.0293 8.30444 10 8.40111 10 8.5C10 8.63261 10.0527 8.75978 10.1464 8.85355C10.2402 8.94732 10.3674 9 10.5 9ZM8 9C8.09889 9 8.19556 8.97067 8.27779 8.91573C8.36001 8.86079 8.4241 8.7827 8.46194 8.69134C8.49978 8.59998 8.50969 8.49944 8.49039 8.40245C8.4711 8.30546 8.42348 8.21637 8.35355 8.14645C8.28363 8.07652 8.19454 8.0289 8.09755 8.00961C8.00055 7.99031 7.90002 8.00022 7.80866 8.03806C7.7173 8.0759 7.63921 8.13999 7.58427 8.22221C7.52932 8.30444 7.5 8.40111 7.5 8.5C7.5 8.63261 7.55268 8.75978 7.64645 8.85355C7.74021 8.94732 7.86739 9 8 9ZM11.5 3H11V2.5C11 2.36739 10.9473 2.24021 10.8536 2.14645C10.7598 2.05268 10.6326 2 10.5 2C10.3674 2 10.2402 2.05268 10.1464 2.14645C10.0527 2.24021 10 2.36739 10 2.5V3H6V2.5C6 2.36739 5.94732 2.24021 5.85355 2.14645C5.75979 2.05268 5.63261 2 5.5 2C5.36739 2 5.24021 2.05268 5.14645 2.14645C5.05268 2.24021 5 2.36739 5 2.5V3H4.5C4.10218 3 3.72064 3.15804 3.43934 3.43934C3.15804 3.72064 3 4.10218 3 4.5V11.5C3 11.8978 3.15804 12.2794 3.43934 12.5607C3.72064 12.842 4.10218 13 4.5 13H11.5C11.8978 13 12.2794 12.842 12.5607 12.5607C12.842 12.2794 13 11.8978 13 11.5V4.5C13 4.10218 12.842 3.72064 12.5607 3.43934C12.2794 3.15804 11.8978 3 11.5 3ZM12 11.5C12 11.6326 11.9473 11.7598 11.8536 11.8536C11.7598 11.9473 11.6326 12 11.5 12H4.5C4.36739 12 4.24021 11.9473 4.14645 11.8536C4.05268 11.7598 4 11.6326 4 11.5V7H12V11.5ZM12 6H4V4.5C4 4.36739 4.05268 4.24021 4.14645 4.14645C4.24021 4.05268 4.36739 4 4.5 4H5V4.5C5 4.63261 5.05268 4.75978 5.14645 4.85355C5.24021 4.94732 5.36739 5 5.5 5C5.63261 5 5.75979 4.94732 5.85355 4.85355C5.94732 4.75978 6 4.63261 6 4.5V4H10V4.5C10 4.63261 10.0527 4.75978 10.1464 4.85355C10.2402 4.94732 10.3674 5 10.5 5C10.6326 5 10.7598 4.94732 10.8536 4.85355C10.9473 4.75978 11 4.63261 11 4.5V4H11.5C11.6326 4 11.7598 4.05268 11.8536 4.14645C11.9473 4.24021 12 4.36739 12 4.5V6ZM5.5 9C5.59889 9 5.69556 8.97067 5.77779 8.91573C5.86001 8.86079 5.9241 8.7827 5.96194 8.69134C5.99978 8.59998 6.00969 8.49944 5.99039 8.40245C5.9711 8.30546 5.92348 8.21637 5.85355 8.14645C5.78363 8.07652 5.69454 8.0289 5.59755 8.00961C5.50055 7.99031 5.40002 8.00022 5.30866 8.03806C5.2173 8.0759 5.13921 8.13999 5.08427 8.22221C5.02932 8.30444 5 8.40111 5 8.5C5 8.63261 5.05268 8.75978 5.14645 8.85355C5.24021 8.94732 5.36739 9 5.5 9ZM5.5 11C5.59889 11 5.69556 10.9707 5.77779 10.9157C5.86001 10.8608 5.9241 10.7827 5.96194 10.6913C5.99978 10.6 6.00969 10.4994 5.99039 10.4025C5.9711 10.3055 5.92348 10.2164 5.85355 10.1464C5.78363 10.0765 5.69454 10.0289 5.59755 10.0096C5.50055 9.99031 5.40002 10.0002 5.30866 10.0381C5.2173 10.0759 5.13921 10.14 5.08427 10.2222C5.02932 10.3044 5 10.4011 5 10.5C5 10.6326 5.05268 10.7598 5.14645 10.8536C5.24021 10.9473 5.36739 11 5.5 11Z" fill="#373636"/>
</svg>
