<svg width="26" height="24" viewBox="0 0 26 24" fill="none" xmlns="http://www.w3.org/2000/svg">
<g clip-path="url(#clip0_416_458)">
<path d="M12.5455 15C14.2777 15 15.6819 13.6569 15.6819 12C15.6819 10.3431 14.2777 9 12.5455 9C10.8134 9 9.40918 10.3431 9.40918 12C9.40918 13.6569 10.8134 15 12.5455 15Z" fill="#1D1D1D"/>
<path d="M20.909 4H17.5949L16.2985 2.65C15.9117 2.24 15.3472 2 14.7617 2H10.329C9.74355 2 9.179 2.24 8.78173 2.65L7.49582 4H4.18173C3.03173 4 2.09082 4.9 2.09082 6V18C2.09082 19.1 3.03173 20 4.18173 20H20.909C22.059 20 22.9999 19.1 22.9999 18V6C22.9999 4.9 22.059 4 20.909 4ZM12.5454 17C9.65991 17 7.31809 14.76 7.31809 12C7.31809 9.24 9.65991 7 12.5454 7C15.4308 7 17.7726 9.24 17.7726 12C17.7726 14.76 15.4308 17 12.5454 17Z" fill="#1D1D1D"/>
</g>
<defs>
<clipPath id="clip0_416_458">
<rect width="25.0909" height="24" fill="white"/>
</clipPath>
</defs>
</svg>
