<svg width="54" height="66" viewBox="0 0 54 66" fill="none" xmlns="http://www.w3.org/2000/svg">
<path d="M0 10C0 4.47715 4.47715 0 10 0H37.8211L43 5L48 10.2509V31.5V53C48 58.5228 43.5228 63 38 63H10C4.47715 63 0 58.5228 0 53V10Z" fill="#D9D9D9" fill-opacity="0.4"/>
<path d="M38 62.5H10C4.75329 62.5 0.5 58.2467 0.5 53V10C0.5 4.75329 4.75329 0.5 10 0.5H37.6191L42.6452 5.35241L47.5 10.4508V31.5V53C47.5 58.2467 43.2467 62.5 38 62.5Z" stroke="#D9D9D9" stroke-opacity="0.8"/>
<path d="M37.5 5.5V0.5L47.5 10.5H42.5C39.7386 10.5 37.5 8.26142 37.5 5.5Z" fill="#D9D9D9" fill-opacity="0.8" stroke="#D9D9D9" stroke-opacity="0.8" stroke-linejoin="round"/>
<circle cx="39" cy="51" r="15" fill="#1D1D1D"/>
<path d="M45.8214 46.9838C45.1722 45.492 44.0518 44.2543 42.6319 43.4603C41.2119 42.6662 39.5708 42.3596 37.96 42.5875C36.3491 42.8154 34.8574 43.5651 33.7134 44.7219C32.5695 45.8787 31.8364 47.3786 31.6264 48.9919C30.6134 49.2345 29.7248 49.8407 29.1293 50.6953C28.5338 51.5499 28.2728 52.5935 28.3961 53.6278C28.5193 54.6622 29.0181 55.6152 29.7977 56.306C30.5774 56.9968 31.5835 57.3772 32.6252 57.375C32.907 57.375 33.1772 57.2631 33.3765 57.0638C33.5757 56.8646 33.6877 56.5943 33.6877 56.3125C33.6877 56.0307 33.5757 55.7605 33.3765 55.5612C33.1772 55.362 32.907 55.25 32.6252 55.25C32.0616 55.25 31.5211 55.0262 31.1226 54.6276C30.7241 54.2291 30.5002 53.6886 30.5002 53.125C30.5002 52.5615 30.7241 52.021 31.1226 51.6224C31.5211 51.2239 32.0616 51 32.6252 51C32.907 51 33.1772 50.8881 33.3765 50.6888C33.5757 50.4896 33.6877 50.2193 33.6877 49.9375C33.6904 48.6809 34.1385 47.4659 34.9523 46.5084C35.7662 45.5509 36.8931 44.9129 38.1329 44.7078C39.3727 44.5026 40.6451 44.7436 41.724 45.3879C42.8029 46.0322 43.6184 47.0381 44.0258 48.2269C44.0865 48.4095 44.1957 48.5722 44.3417 48.6975C44.4876 48.8229 44.6649 48.9063 44.8546 48.9388C45.5622 49.0725 46.2038 49.442 46.6746 49.987C47.1455 50.532 47.4179 51.2204 47.4475 51.94C47.477 52.6596 47.262 53.368 46.8375 53.9498C46.4129 54.5316 45.8039 54.9524 45.1096 55.1438C44.8362 55.2142 44.6021 55.3904 44.4586 55.6335C44.3151 55.8766 44.2741 56.1667 44.3446 56.44C44.415 56.7134 44.5911 56.9475 44.8342 57.091C45.0773 57.2345 45.3675 57.2755 45.6408 57.205C46.759 56.9096 47.7502 56.2573 48.4639 55.3472C49.1776 54.4372 49.5748 53.3191 49.5953 52.1627C49.6157 51.0063 49.2582 49.8749 48.5771 48.9402C47.896 48.0055 46.9284 47.3186 45.8214 46.9838ZM39.7545 49.1832C39.6535 49.0864 39.5343 49.0106 39.4039 48.96C39.1452 48.8538 38.8551 48.8538 38.5964 48.96C38.466 49.0106 38.3468 49.0864 38.2458 49.1832L35.0583 52.3707C34.8582 52.5707 34.7458 52.8421 34.7458 53.125C34.7458 53.408 34.8582 53.6793 35.0583 53.8794C35.2584 54.0795 35.5297 54.1919 35.8127 54.1919C36.0956 54.1919 36.367 54.0795 36.567 53.8794L37.9377 52.4982V58.4375C37.9377 58.7193 38.0496 58.9896 38.2489 59.1888C38.4481 59.3881 38.7184 59.5 39.0002 59.5C39.282 59.5 39.5522 59.3881 39.7515 59.1888C39.9507 58.9896 40.0627 58.7193 40.0627 58.4375V52.4982L41.4333 53.8794C41.5321 53.979 41.6496 54.058 41.7791 54.112C41.9085 54.1659 42.0474 54.1937 42.1877 54.1937C42.3279 54.1937 42.4668 54.1659 42.5963 54.112C42.7258 54.058 42.8433 53.979 42.9421 53.8794C43.0416 53.7806 43.1207 53.6631 43.1746 53.5337C43.2286 53.4042 43.2563 53.2653 43.2563 53.125C43.2563 52.9848 43.2286 52.8459 43.1746 52.7164C43.1207 52.587 43.0416 52.4694 42.9421 52.3707L39.7545 49.1832Z" fill="white"/>
</svg>
