<svg width="22" height="22" viewBox="0 0 22 22" fill="none" xmlns="http://www.w3.org/2000/svg">
<path d="M20.4156 0.871338H1.58396C1.19783 0.871338 0.871094 1.19807 0.871094 1.58421V20.4159C0.871094 20.802 1.19783 21.1288 1.58396 21.1288H20.4156C20.8018 21.1288 21.1285 20.802 21.1285 20.4159V1.58421C21.1285 1.19807 20.8018 0.871338 20.4156 0.871338ZM18.9602 10.2872H17.3265V7.01985H19.7028V10.2872H18.9602ZM15.9008 10.2872H6.09882V2.29708H15.9008V10.2872ZM4.67307 10.2872H2.29684V7.01985H4.67307V10.2872ZM2.29684 11.7129H4.67307V14.9802H2.29684V11.7129ZM6.09882 11.7129H15.9008V19.703H6.09882V11.7129ZM17.3265 11.7129H19.7028V14.9802H17.3265V11.7129ZM19.7028 5.59411H17.3265V2.32678H19.7028V5.59411ZM4.67307 2.29708V5.56441H2.29684V2.29708H4.67307ZM2.29684 16.406H4.67307V19.6733H2.29684V16.406ZM17.3265 19.703V16.4357H19.7028V19.703H17.3265Z" fill="#1D1D1D"/>
</svg>
