<svg width="30" height="30" viewBox="0 0 30 30" fill="none" xmlns="http://www.w3.org/2000/svg">
<path d="M18.3075 8.61055L16.6316 8.61321L16.6349 6.59866L15.5419 6.60044L15.5504 1.36187L14.8254 1.3631L14.8168 6.60163L13.7238 6.60342L13.7204 8.61801L12.0446 8.62075L12.0209 23.0671L10.9757 23.0688L10.9745 23.7938L14.1485 23.7885L14.1436 26.8058L13.3448 26.8071L13.3436 27.5321L16.9465 27.5262L16.9477 26.8012L16.1489 26.8025L16.1539 23.7852L19.3279 23.78L19.3291 23.0551L18.2839 23.0567L18.3075 8.61055ZM14.4475 7.32721L15.9088 7.32482L15.9067 8.59363L14.4454 8.59606L14.4475 7.32721ZM12.7565 16.5891L13.8073 16.5874L13.8085 15.8624L12.7577 15.8641L12.7603 14.2363L13.8111 14.2345L13.8123 13.5096L12.7615 13.5113L12.7642 11.8834L13.815 11.8817L13.8162 11.1567L12.7654 11.1584L12.7684 9.34463L17.5814 9.3368L17.5669 18.1949L12.7538 18.2028L12.7565 16.5891ZM12.7459 23.0514L12.7492 21.0007L13.8001 20.999L13.8012 20.274L12.7505 20.2757L12.7526 18.9278L14.1565 18.9255L14.1497 23.0491L12.7459 23.0514ZM15.424 26.7758L14.8686 26.7768L14.8735 23.7874L15.4289 23.7866L15.424 26.7758ZM14.8747 23.0478L14.8814 18.9309L15.4369 18.93L15.4301 23.0469L14.8747 23.0478ZM16.1551 23.0458L16.1619 18.9222L17.5657 18.9199L17.5589 23.0435L16.1551 23.0458Z" fill="#1D1D1D"/>
</svg>
