<svg width="30" height="30" viewBox="0 0 30 30" fill="none" xmlns="http://www.w3.org/2000/svg">
<path d="M17.25 3.21094H12.75C11.8125 3.21094 11.0625 3.96094 11.0625 4.89844V14.4375H10.5C10.1953 14.4375 9.9375 14.6953 9.9375 15V23.9766C9.9375 24.2813 10.1953 24.5391 10.5 24.5391H10.5703L10.8516 26.3203C10.8984 26.6016 11.1328 26.7891 11.4141 26.7891H18.5625C18.8437 26.7891 19.0781 26.5781 19.125 26.3203L19.4062 24.5391H19.4766C19.7812 24.5391 20.0391 24.2813 20.0391 23.9766V15C20.0391 14.6953 19.7812 14.4375 19.4766 14.4375H18.9141V4.89844C18.9375 3.98437 18.1641 3.21094 17.25 3.21094ZM12.1875 4.89844C12.1875 4.59375 12.4453 4.33594 12.75 4.33594H17.25C17.5547 4.33594 17.8125 4.59375 17.8125 4.89844V14.4375H12.1875V4.89844ZM18.0937 25.6641H11.9062L11.7187 24.5391H18.2812L18.0937 25.6641ZM18.9375 23.4141H11.0625V15.5625H18.9141V23.4141H18.9375Z" fill="#1D1D1D"/>
</svg>
