<svg width="30" height="30" viewBox="0 0 30 30" fill="none" xmlns="http://www.w3.org/2000/svg">
<path d="M15.5992 3.92773H11.3886C10.6122 3.92773 9.98275 4.52065 9.95599 5.27715C9.94333 5.62825 10.063 5.97129 10.2913 6.23832C10.5196 6.50536 10.8399 6.67689 11.1887 6.71894C11.2433 6.74567 11.3033 6.75963 11.364 6.75976H15.5992C15.9419 6.75976 16.1851 6.95508 16.2069 7.29687H10.6561C10.5525 7.29687 10.4531 7.33803 10.3799 7.41129C10.3066 7.48454 10.2655 7.5839 10.2655 7.6875C10.2655 7.7911 10.3066 7.89046 10.3799 7.96371C10.4531 8.03697 10.5525 8.07812 10.6561 8.07812H16.209V8.9082H10.6561C10.5525 8.9082 10.4531 8.94936 10.3799 9.02261C10.3066 9.09587 10.2655 9.19523 10.2655 9.29883C10.2655 9.40243 10.3066 9.50178 10.3799 9.57504C10.4531 9.6483 10.5525 9.68945 10.6561 9.68945H16.209V10.5195H10.6561C10.5525 10.5195 10.4531 10.5607 10.3799 10.6339C10.3066 10.7072 10.2655 10.8066 10.2655 10.9102C10.2655 11.0138 10.3066 11.1131 10.3799 11.1864C10.4531 11.2596 10.5525 11.3008 10.6561 11.3008H16.209V12.1797H10.6561C10.5525 12.1797 10.4531 12.2208 10.3799 12.2941C10.3066 12.3674 10.2655 12.4667 10.2655 12.5703C10.2655 12.6739 10.3066 12.7733 10.3799 12.8465C10.4531 12.9198 10.5525 12.9609 10.6561 12.9609H16.209V13.791H10.6561C10.5525 13.791 10.4531 13.8322 10.3799 13.9054C10.3066 13.9787 10.2655 14.078 10.2655 14.1816C10.2655 14.2852 10.3066 14.3846 10.3799 14.4579C10.4531 14.5311 10.5525 14.5723 10.6561 14.5723H16.209V15.4512H11.3886C10.6122 15.4512 9.98284 16.0466 9.95599 16.8063C9.94358 17.1637 10.0675 17.5124 10.3025 17.7818C10.5376 18.0513 10.8663 18.2213 11.2221 18.2575C11.2674 18.2746 11.3155 18.2833 11.364 18.2832H16.209V25.7089C16.2111 25.9884 16.2958 26.2611 16.4522 26.4928C16.6087 26.7244 16.83 26.9048 17.0885 27.0112C17.347 27.1176 17.6311 27.1454 17.9053 27.0911C18.1796 27.0368 18.4316 26.9027 18.63 26.7058C18.7611 26.5751 18.865 26.4197 18.9355 26.2486C19.0061 26.0774 19.0419 25.894 19.041 25.7089V7.32671C19.0431 6.87692 18.9548 6.4313 18.7813 6.01632C18.6079 5.60134 18.3527 5.22546 18.0311 4.91103C17.3816 4.27575 16.5077 3.9224 15.5992 3.92773ZM18.2597 25.7089C18.2604 25.7913 18.2446 25.8731 18.2133 25.9493C18.182 26.0256 18.1359 26.0949 18.0776 26.1532C17.9572 26.2715 17.795 26.3375 17.6263 26.3368C17.4587 26.3377 17.2977 26.2721 17.1784 26.1544C17.0592 26.0366 16.9915 25.8764 16.9902 25.7089V17.8926C16.9902 17.789 16.9491 17.6896 16.8758 17.6164C16.8025 17.5431 16.7032 17.502 16.5996 17.502H11.4498C11.4147 17.4907 11.3782 17.4843 11.3413 17.4829C11.1752 17.4769 11.0182 17.4052 10.9049 17.2836C10.7916 17.162 10.7311 17.0004 10.7368 16.8343C10.7485 16.5023 11.0409 16.2324 11.3886 16.2324H16.5996C16.7032 16.2324 16.8025 16.1913 16.8758 16.118C16.9491 16.0448 16.9902 15.9454 16.9902 15.8418V14.3209C17.0206 14.2367 17.0206 14.1444 16.9902 14.0601V12.6915C17.0206 12.6072 17.0206 12.515 16.9902 12.4307V11.0621C17.0206 10.9778 17.0206 10.8855 16.9902 10.8012V9.43262C17.0206 9.34833 17.0206 9.25606 16.9902 9.17178V7.80317C17.0206 7.71888 17.0206 7.62662 16.9902 7.54233V7.32671C16.9902 6.5581 16.3922 5.97851 15.5992 5.97851H11.4808C11.4365 5.96011 11.3893 5.94977 11.3413 5.948C11.1748 5.94293 11.017 5.87192 10.9029 5.75058C10.8469 5.69114 10.8034 5.62112 10.7749 5.54464C10.7464 5.46815 10.7335 5.38673 10.7368 5.30517C10.7487 4.97085 11.0347 4.70898 11.3887 4.70898H15.5993C17.0911 4.70898 18.2597 5.85884 18.2597 7.32671V25.7089Z" fill="white"/>
</svg>
