<svg width="30" height="30" viewBox="0 0 30 30" fill="none" xmlns="http://www.w3.org/2000/svg">
<path d="M25.715 17.7233C24.8419 17.5069 23.9548 17.3839 23.0639 17.3556C24.3168 14.6969 22.9213 10.0551 22.8553 9.83951C22.7782 9.73214 22.6797 9.65061 22.5691 9.60276C22.4586 9.55491 22.3398 9.54236 22.2241 9.56629C21.0958 10.05 20.0252 10.7128 19.0403 11.5373C18.7866 10.0539 17.9367 6.66974 15.3214 5.04841C15.2718 5.01785 15.2171 5.00132 15.1614 5.00008C15.1058 4.99883 15.0506 5.01289 15 5.04122C14.9495 5.01289 14.8943 4.99883 14.8387 5.00008C14.783 5.00132 14.7283 5.01785 14.6787 5.04841C12.0634 6.66974 11.2135 10.0539 10.9598 11.5373C9.97485 10.713 8.90426 10.0504 7.77598 9.56689C7.71172 9.54315 7.64333 9.54118 7.57821 9.56119C7.49042 9.53544 7.3979 9.54959 7.31814 9.60099C7.23837 9.65238 7.1769 9.73745 7.14534 9.84011C7.07933 10.0557 5.68381 14.6987 6.93693 17.3565C6.04585 17.3845 5.1585 17.5073 4.28508 17.7233C4.23186 17.739 4.18214 17.7687 4.13945 17.8103C4.09676 17.8519 4.06214 17.9043 4.03804 17.964C4.01395 18.0237 4.00098 18.089 4.00005 18.1554C3.99912 18.2219 4.01026 18.2877 4.03267 18.3483C6.21013 24.4935 11.8802 24.6285 15 23.3647C18.1283 24.6276 23.7848 24.4959 25.9674 18.348C25.9898 18.2874 26.0009 18.2216 25.9999 18.1552C25.999 18.0888 25.986 18.0235 25.9619 17.9639C25.9378 17.9043 25.9032 17.8518 25.8606 17.8102C25.8179 17.7687 25.7682 17.739 25.715 17.7233ZM10.303 21.863C11.7277 22.2352 12.8199 22.6089 13.5605 22.892C11.4753 23.3788 7.14064 23.6592 4.91596 18.4926C6.56537 18.1561 12.1665 17.4096 14.1763 22.1869C12.9561 21.7045 11.7152 21.3031 10.459 20.9846C10.3651 20.966 10.2689 20.9918 10.1903 21.0568C10.1118 21.1218 10.0568 21.221 10.0367 21.3338C10.0167 21.4466 10.0332 21.5644 10.0827 21.6629C10.1323 21.7614 10.2111 21.833 10.303 21.863ZM14.6203 21.3127C14.1521 20.3646 13.5098 19.5605 12.7435 18.9628C10.8946 17.3889 10.3065 15.5324 10.3472 15.5537C10.3205 15.4389 10.2572 15.3417 10.1713 15.2835C10.0855 15.2253 9.98405 15.2108 9.88941 15.2433C9.79476 15.2758 9.71463 15.3526 9.66665 15.4568C9.61867 15.5609 9.60676 15.684 9.63354 15.7988C9.85414 16.5505 10.194 17.2424 10.634 17.8355C9.72441 17.5395 8.78872 17.3775 7.84717 17.3532C6.53694 15.5966 7.42889 11.6882 7.74285 10.5008C8.87957 11.0017 9.95247 11.6943 10.9299 12.5582C10.973 12.6316 11.0333 12.6876 11.103 12.7187C12.9356 14.412 14.7593 17.1532 14.6203 21.3127ZM14.9976 11.8483C14.8992 11.8483 14.8049 11.8957 14.7354 11.9801C14.6658 12.0645 14.6268 12.1789 14.6268 12.2982V16.6112C13.9408 14.8434 12.9108 13.3043 11.6256 12.1266C11.7544 11.1861 12.4167 7.4759 15 5.86088C17.5824 7.4759 18.2457 11.1861 18.3745 12.1266C17.086 13.3075 16.0541 14.8516 15.3684 16.6253V12.2982C15.3684 12.1789 15.3293 12.0645 15.2598 11.9801C15.1902 11.8957 15.0959 11.8483 14.9976 11.8483ZM18.8964 12.7181C18.9661 12.687 19.0264 12.631 19.0694 12.5576C20.0469 11.6935 21.1199 11.0008 22.2568 10.5002C22.5712 11.687 23.4649 15.5933 22.1522 17.3523C21.2109 17.377 20.2756 17.5393 19.3663 17.8355C19.8062 17.2422 20.146 16.5502 20.3666 15.7985C20.3918 15.6843 20.3789 15.5627 20.3308 15.4599C20.2827 15.3572 20.2032 15.2815 20.1095 15.2492C20.0158 15.217 19.9153 15.2308 19.8299 15.2877C19.7445 15.3446 19.681 15.4399 19.6531 15.5531C19.6927 15.5327 19.1117 17.3796 17.2571 18.9619C16.4905 19.5596 15.848 20.3639 15.3798 21.3124C15.2411 17.1532 17.0648 14.412 18.8964 12.7193V12.7181ZM16.4433 22.8905C17.1837 22.608 18.2744 22.2346 19.6971 21.863C19.7447 21.8506 19.7898 21.8269 19.8299 21.7933C19.87 21.7597 19.9042 21.7169 19.9306 21.6673C19.957 21.6176 19.9751 21.5622 19.9839 21.5041C19.9927 21.446 19.9919 21.3863 19.9816 21.3286C19.9714 21.2708 19.9519 21.2161 19.9242 21.1674C19.8965 21.1188 19.8612 21.0773 19.8203 21.0453C19.7794 21.0132 19.7337 20.9912 19.6858 20.9806C19.6379 20.97 19.5887 20.9709 19.5411 20.9834C18.2849 21.3023 17.0439 21.7041 15.8238 22.1869C17.8339 17.4096 23.4352 18.1561 25.0839 18.4926C22.8637 23.6478 18.5305 23.374 16.4433 22.8905Z" fill="#1D1D1D"/>
</svg>
