<svg width="30" height="30" viewBox="0 0 30 30" fill="none" xmlns="http://www.w3.org/2000/svg">
<path d="M18.3125 17.6242H17.825V9.33669C17.825 9.2074 17.7736 9.0834 17.6822 8.99197C17.5908 8.90055 17.4668 8.84919 17.3375 8.84919H16.85V3.48669C16.8499 3.39925 16.8262 3.31345 16.7815 3.2383C16.7368 3.16315 16.6727 3.1014 16.5959 3.05953C16.5192 3.01765 16.4326 2.9972 16.3452 3.00031C16.2578 3.00342 16.1728 3.02997 16.0992 3.07719L13.1742 4.94919C13.1056 4.99324 13.0491 5.0538 13.0099 5.12535C12.9707 5.19689 12.9501 5.27712 12.95 5.35869V8.84919H12.4625C12.3332 8.84919 12.2092 8.90055 12.1178 8.99197C12.0264 9.0834 11.975 9.2074 11.975 9.33669V17.6242H11.4875C11.3582 17.6242 11.2342 17.6756 11.1428 17.767C11.0514 17.8584 11 17.9824 11 18.1117V26.8867C11 27.016 11.0514 27.14 11.1428 27.2314C11.2342 27.3228 11.3582 27.3742 11.4875 27.3742H18.3125C18.4418 27.3742 18.5658 27.3228 18.6572 27.2314C18.7486 27.14 18.8 27.016 18.8 26.8867V18.1117C18.8 17.9824 18.7486 17.8584 18.6572 17.767C18.5658 17.6756 18.4418 17.6242 18.3125 17.6242ZM12.95 9.82419H16.85V17.6242H12.95V9.82419ZM12.4625 18.5992H17.825V24.7563H11.975V18.5992H12.4625ZM11.975 26.3992V25.7313H17.825V26.3992H11.975Z" fill="white"/>
<path d="M15.231 7.87416C15.1017 7.87416 14.9777 7.82279 14.8863 7.73137C14.7949 7.63995 14.7435 7.51595 14.7435 7.38666V5.58778C14.7435 5.45849 14.7949 5.33449 14.8863 5.24307C14.9777 5.15164 15.1017 5.10028 15.231 5.10028C15.3603 5.10028 15.4843 5.15164 15.5757 5.24307C15.6672 5.33449 15.7185 5.45849 15.7185 5.58778V7.38666C15.7185 7.51595 15.6672 7.63995 15.5757 7.73137C15.4843 7.82279 15.3603 7.87416 15.231 7.87416Z" fill="white"/>
</svg>
