<svg width="30" height="30" viewBox="0 0 30 30" fill="none" xmlns="http://www.w3.org/2000/svg">
<path d="M15.3702 14.8026L9.9093 12.3764V7.52399M15.3702 14.8026L20.9383 12.3764V7.52399M15.3702 14.8026C15.3702 14.8026 18.5826 23.7354 19.3321 24.8382M9.9093 7.52399V4.87722C9.9093 4.87722 12.265 3.66412 15.3702 3.66412C18.4755 3.66412 20.9383 4.87722 20.9383 4.87722V7.52399M9.9093 7.52399C9.9093 7.52399 13.2047 6.5388 15.3702 6.53145C17.577 6.52397 20.9383 7.52399 20.9383 7.52399" stroke="white"/>
<path d="M23.8392 23.1271C24.0961 24.0553 24.0416 24.9599 23.769 25.666C23.4964 26.3719 23.0216 26.85 22.4415 27.0204C21.8614 27.1907 21.2131 27.0423 20.6201 26.5906C20.0269 26.1388 19.5175 25.3997 19.2605 24.4716C19.0036 23.5434 19.058 22.6388 19.3307 21.9327C19.6033 21.2268 20.0781 20.7486 20.6582 20.5783C21.2383 20.4079 21.8865 20.5564 22.4796 21.0081C23.0728 21.4599 23.5822 22.1989 23.8392 23.1271Z" stroke="white"/>
<path d="M15.2787 14.9128C15.2787 14.9128 12.0664 23.8457 11.3168 24.9485" stroke="white"/>
<path d="M6.80966 23.2374C6.55271 24.1656 6.60705 25.0702 6.87956 25.7763C7.15199 26.4821 7.62651 26.9601 8.20623 27.1303C8.78595 27.3006 9.43389 27.1521 10.0268 26.7004C10.6198 26.2485 11.1291 25.5094 11.3861 24.5812C11.643 23.6529 11.5887 22.7483 11.3162 22.0423C11.0438 21.3365 10.5692 20.8584 9.98952 20.6882C9.4098 20.518 8.76186 20.6664 8.16899 21.1182C7.57595 21.5701 7.06661 22.3092 6.80966 23.2374Z" stroke="white"/>
<path d="M14.4065 17.5596H16.3339" stroke="white"/>
<path d="M10.004 10.4771H20.812" stroke="white"/>
</svg>
