<svg width="15" height="15" viewBox="0 0 15 15" fill="none" xmlns="http://www.w3.org/2000/svg">
<path d="M7.5 1.25C6.17392 1.25 4.90215 1.77678 3.96447 2.71447C3.02678 3.65215 2.5 4.92392 2.5 6.25C2.5 9.625 6.90625 13.4375 7.09375 13.6C7.20696 13.6968 7.35103 13.75 7.5 13.75C7.64897 13.75 7.79304 13.6968 7.90625 13.6C8.125 13.4375 12.5 9.625 12.5 6.25C12.5 4.92392 11.9732 3.65215 11.0355 2.71447C10.0979 1.77678 8.82608 1.25 7.5 1.25ZM7.5 12.2812C6.16875 11.0312 3.75 8.3375 3.75 6.25C3.75 5.25544 4.14509 4.30161 4.84835 3.59835C5.55161 2.89509 6.50544 2.5 7.5 2.5C8.49456 2.5 9.44839 2.89509 10.1517 3.59835C10.8549 4.30161 11.25 5.25544 11.25 6.25C11.25 8.3375 8.83125 11.0375 7.5 12.2812ZM7.5 3.75C7.00555 3.75 6.5222 3.89662 6.11107 4.17133C5.69995 4.44603 5.37952 4.83648 5.1903 5.29329C5.00108 5.75011 4.95157 6.25277 5.04804 6.73773C5.1445 7.22268 5.3826 7.66814 5.73223 8.01777C6.08186 8.3674 6.52732 8.6055 7.01227 8.70196C7.49723 8.79843 7.99989 8.74892 8.45671 8.5597C8.91352 8.37048 9.30397 8.05005 9.57867 7.63893C9.85338 7.2278 10 6.74445 10 6.25C10 5.58696 9.73661 4.95107 9.26777 4.48223C8.79893 4.01339 8.16304 3.75 7.5 3.75ZM7.5 7.5C7.25277 7.5 7.0111 7.42669 6.80554 7.28934C6.59998 7.15199 6.43976 6.95676 6.34515 6.72835C6.25054 6.49995 6.22579 6.24861 6.27402 6.00614C6.32225 5.76366 6.4413 5.54093 6.61612 5.36612C6.79093 5.1913 7.01366 5.07225 7.25614 5.02402C7.49861 4.97579 7.74995 5.00054 7.97835 5.09515C8.20676 5.18976 8.40199 5.34998 8.53934 5.55554C8.67669 5.7611 8.75 6.00277 8.75 6.25C8.75 6.58152 8.6183 6.89946 8.38388 7.13388C8.14946 7.3683 7.83152 7.5 7.5 7.5Z" fill="#373636"/>
</svg>
