<svg width="15" height="15" viewBox="0 0 15 15" fill="none" xmlns="http://www.w3.org/2000/svg">
<path d="M10.6893 13.9764C10.157 13.9766 9.63382 13.8377 9.1717 13.5734L9.10653 13.5367C6.10196 11.818 3.5883 9.3576 1.80567 6.39052L1.46584 5.82414C1.11778 5.2451 0.973555 4.56623 1.05614 3.8957C1.13873 3.22518 1.44337 2.60159 1.92153 2.12431L2.5986 1.44724C3.16756 0.878276 4.09291 0.878276 4.66136 1.44724L6.15308 2.93897C6.37758 3.16453 6.52245 3.4571 6.56576 3.77238C6.60907 4.08766 6.54845 4.40847 6.39308 4.68621L5.83239 5.6819C5.82061 5.70285 5.816 5.72707 5.81927 5.75089C5.82253 5.7747 5.8335 5.79679 5.85049 5.81379L9.1717 9.135C9.18897 9.15192 9.21126 9.16278 9.23523 9.16595C9.2592 9.16912 9.28355 9.16443 9.30463 9.15259L10.2988 8.59241L10.2993 8.5919C10.5771 8.4367 10.8978 8.37617 11.2131 8.41948C11.5283 8.46278 11.8209 8.60755 12.0465 8.8319L13.5388 10.3247C14.1077 10.8936 14.1077 11.819 13.5388 12.3874L12.8317 13.094C12.5501 13.3746 12.2159 13.597 11.8483 13.7484C11.4807 13.8999 11.0869 13.9773 10.6893 13.9764ZM3.62998 2.055C3.52136 2.055 3.41273 2.09638 3.32998 2.17914L2.65291 2.85569C2.3382 3.16983 2.13769 3.58026 2.08332 4.02159C2.02895 4.46291 2.12386 4.90973 2.35291 5.29086L2.69273 5.85724C4.38367 8.67193 6.76804 11.0061 9.61808 12.6367L9.68325 12.6734C10.4726 13.125 11.4657 12.9972 12.0998 12.3621L12.8069 11.6555C12.8463 11.6161 12.8775 11.5694 12.8989 11.5179C12.9202 11.4664 12.9312 11.4112 12.9312 11.3555C12.9312 11.2998 12.9202 11.2446 12.8989 11.1931C12.8775 11.1417 12.8463 11.0949 12.8069 11.0555L11.3146 9.56276C11.249 9.49747 11.1638 9.45539 11.072 9.44288C10.9803 9.43037 10.8869 9.44813 10.8062 9.49345L9.81204 10.0536C9.59406 10.1757 9.34225 10.2233 9.09474 10.1895C8.84723 10.1556 8.61749 10.042 8.44032 9.86586L5.11911 6.54465C4.9428 6.3677 4.82907 6.13804 4.79518 5.89055C4.76129 5.64307 4.8091 5.39128 4.93136 5.17345L5.49205 4.17828C5.53709 4.0975 5.55464 4.00426 5.54205 3.91264C5.52945 3.82101 5.48739 3.73597 5.42222 3.67034L3.92998 2.17914C3.89061 2.13971 3.84384 2.10845 3.79236 2.08715C3.74087 2.06585 3.68569 2.05492 3.62998 2.055Z" fill="#373636"/>
</svg>
