<svg width="20" height="20" viewBox="0 0 20 20" fill="none" xmlns="http://www.w3.org/2000/svg">
<g clip-path="url(#clip0_389_559)">
<path d="M18.225 9.58331C17.6916 8.65831 14.7583 4.01664 9.77498 4.16664C5.16664 4.28331 2.49998 8.33331 1.77498 9.58331C1.70184 9.70999 1.66333 9.85369 1.66333 9.99997C1.66333 10.1463 1.70184 10.29 1.77498 10.4166C2.29998 11.325 5.10831 15.8333 10.0166 15.8333H10.225C14.8333 15.7166 17.5083 11.6666 18.225 10.4166C18.2981 10.29 18.3366 10.1463 18.3366 9.99997C18.3366 9.85369 18.2981 9.70999 18.225 9.58331ZM10.1833 14.1666C6.59164 14.25 4.24998 11.175 3.51664 9.99997C4.34998 8.65831 6.52498 5.91664 9.85831 5.83331C13.4333 5.74164 15.7833 8.82497 16.525 9.99997C15.6666 11.3416 13.5166 14.0833 10.1833 14.1666Z" fill="#5F5F5F"/>
<path d="M9.99998 7.08337C9.42312 7.08337 8.85921 7.25443 8.37957 7.57492C7.89992 7.89541 7.52609 8.35093 7.30533 8.88388C7.08458 9.41683 7.02682 10.0033 7.13936 10.5691C7.2519 11.1348 7.52968 11.6545 7.93759 12.0624C8.34549 12.4703 8.86519 12.7481 9.43097 12.8607C9.99675 12.9732 10.5832 12.9154 11.1161 12.6947C11.6491 12.4739 12.1046 12.1001 12.4251 11.6205C12.7456 11.1408 12.9166 10.5769 12.9166 10C12.9166 9.22649 12.6094 8.48463 12.0624 7.93765C11.5154 7.39066 10.7735 7.08337 9.99998 7.08337ZM9.99998 11.25C9.75275 11.25 9.51108 11.1767 9.30552 11.0394C9.09996 10.902 8.93974 10.7068 8.84513 10.4784C8.75052 10.25 8.72577 9.99865 8.774 9.75618C8.82223 9.5137 8.94128 9.29097 9.1161 9.11616C9.29091 8.94134 9.51364 8.82229 9.75612 8.77406C9.99859 8.72583 10.2499 8.75058 10.4783 8.84519C10.7067 8.9398 10.902 9.10002 11.0393 9.30558C11.1767 9.51114 11.25 9.75281 11.25 10C11.25 10.3316 11.1183 10.6495 10.8839 10.8839C10.6494 11.1183 10.3315 11.25 9.99998 11.25Z" fill="#5F5F5F"/>
</g>
<defs>
<clipPath id="clip0_389_559">
<rect width="20" height="20" fill="white"/>
</clipPath>
</defs>
</svg>
