<svg width="15" height="15" viewBox="0 0 15 15" fill="none" xmlns="http://www.w3.org/2000/svg">
<g clip-path="url(#clip0_467_246)">
<path d="M12.2318 14.0211C11.732 14.3771 8.52487 12.1203 7.91064 12.1154C7.2964 12.1105 4.05321 14.3153 3.55922 13.9513C3.06523 13.5873 4.22658 9.84846 4.0415 9.26445C3.85643 8.68045 0.751268 6.28605 0.945777 5.70508C1.14033 5.1241 5.06517 5.07014 5.56499 4.71413C6.06482 4.35816 7.38895 0.673495 8.00322 0.678412C8.61741 0.683372 9.88171 4.38886 10.3757 4.75287C10.8697 5.11684 14.7932 5.234 14.9783 5.818C15.1634 6.40201 12.0199 8.74612 11.8254 9.32709C11.6309 9.90807 12.7316 13.6651 12.2318 14.0211Z" fill="#F8B84E"/>
</g>
<defs>
<clipPath id="clip0_467_246">
<rect width="15" height="15" fill="white"/>
</clipPath>
</defs>
</svg>
